<svg id="Layer_1" data-name="Layer 1" xmlns="http://www.w3.org/2000/svg" viewBox="0 0 774.82 281.39"><defs><style>.cls-1{fill:#fff;}</style></defs><path class="cls-1" d="M91.19,79.5c0-1.26.54-1.8,1.8-1.8h38.16c32,0,59.22,20.34,59.22,63s-27.18,63-59.22,63H93c-1.26,0-1.8-.54-1.8-1.8Zm22.68,19.08v84.24h16.2c21.42,0,36.9-13.32,36.9-42.12s-15.48-42.12-36.9-42.12Z"/><path class="cls-1" d="M279,170.4H234.31l-10.8,31.49c-.36,1.26-.72,1.8-2.16,1.8H201.74c-1.26,0-2-.54-2-1.8a2.57,2.57,0,0,1,.19-1.08L244.21,79.5c.36-1.26.54-1.8,1.8-1.8h21.24c1.26,0,1.44.54,1.8,1.8l44.28,121.31a2.7,2.7,0,0,1,.18,1.08c0,1.26-.72,1.8-2,1.8H291.91c-1.44,0-1.8-.54-2.16-1.8Zm-37.44-20.88h30.24L256.63,105.6Z"/><path class="cls-1" d="M537.55,170.4H492.91l-10.8,31.49c-.36,1.26-.72,1.8-2.16,1.8H460.33c-1.26,0-2-.54-2-1.8a2.7,2.7,0,0,1,.18-1.08L502.81,79.5c.36-1.26.54-1.8,1.8-1.8h21.24c1.26,0,1.44.54,1.8,1.8l44.28,121.31a2.7,2.7,0,0,1,.18,1.08c0,1.26-.72,1.8-2,1.8H550.51c-1.44,0-1.8-.54-2.16-1.8Zm-37.44-20.88h30.24L515.23,105.6Z"/><path class="cls-1" d="M590.75,201.89V79.5c0-1.26.54-1.8,1.8-1.8h48.24c20.88,0,37.44,12.6,37.44,33.3,0,11.88-5.22,18.9-12.78,24.84,10.8,4.86,18.18,14.58,18.18,30.42,0,21.24-14.76,37.43-38.52,37.43H592.55C591.29,203.69,590.75,203.15,590.75,201.89ZM613.43,127H641c8.28,0,14.58-4.68,14.58-14.4s-6.3-14-14.58-14H613.43Zm0,55.8H643c10.26,0,17.64-6.3,17.64-17.46,0-10.62-7.38-17.46-17.64-17.46H613.43Z"/><path class="cls-1" d="M380.91,205.49c-28.44,0-58.68-19.43-58.68-64.79s30.24-64.8,58.68-64.8c29.52,0,52.92,17.28,56.34,45.18,0,1.44-.54,1.8-2,1.8H417.09a2.11,2.11,0,0,1-2.16-1.8c-5-17.64-17.82-24.3-34-24.3-17.28,0-35.28,14.22-35.28,43.92s18,43.92,35.28,43.92l9.82.12c1.44,0,1.8.54,1.8,2v16.61a2.11,2.11,0,0,1-1.8,2.16Z"/><path class="cls-1" d="M414.93,164.45a.85.85,0,0,0-.86-.86H381.63c-1.26,0-1.8-.54-1.8-1.8V144.5a1.8,1.8,0,0,1,1.8-1.8h53.75a2,2,0,0,1,2.23,2.2v57.16a1.81,1.81,0,0,1-1.8,1.8H416.72a1.81,1.81,0,0,1-1.8-1.8Z"/></svg>